HIERARCHY
ROOT Hips
{
  OFFSET -331.093 83.8371 -317.828
  CHANNELS 6 Xposition Yposition Zposition Zrotation Xrotation Yrotation
  JOINT LeftUpLeg
  {
    OFFSET 8.64259 1.95398 -2.38835
    CHANNELS 3 Zrotation Xrotation Yrotation
    JOINT LeftLeg
    {
      OFFSET 43.7702 0 0
      CHANNELS 3 Zrotation Xrotation Yrotation
      JOINT LeftFoot
      {
        OFFSET 40.6238 0 0
        CHANNELS 3 Zrotation Xrotation Yrotation
        JOINT LeftToeBase
        {
          OFFSET 12.7242 0 0
          CHANNELS 3 Zrotation Xrotation Yrotation
          End Site
          {
            OFFSET 0 0 0
          }
        }
      }
    }
  }
  JOINT RightUpLeg
  {
    OFFSET -8.2249 1.95398 -2.59336
    CHANNELS 3 Zrotation Xrotation Yrotation
    JOINT RightLeg
    {
      OFFSET 43.5653 0 0
      CHANNELS 3 Zrotation Xrotation Yrotation
      JOINT RightFoot
      {
        OFFSET 40.6238 0 0
        CHANNELS 3 Zrotation Xrotation Yrotation
        JOINT RightToeBase
        {
          OFFSET 12.7242 0 0
          CHANNELS 3 Zrotation Xrotation Yrotation
          End Site
          {
            OFFSET 0 0 0
          }
        }
      }
    }
  }
  JOINT Spine
  {
    OFFSET 0.165834 0.87714 6.61349
    CHANNELS 3 Zrotation Xrotation Yrotation
    JOINT Spine1
    {
      OFFSET 7.38963 1.71661e-005 0
      CHANNELS 3 Zrotation Xrotation Yrotation
      JOINT Spine2
      {
        OFFSET 11.9445 1.14441e-005 0
        CHANNELS 3 Zrotation Xrotation Yrotation
        JOINT Spine3
        {
          OFFSET 14.7254 4.19617e-005 0
          CHANNELS 3 Zrotation Xrotation Yrotation
          JOINT Spine4
          {
            OFFSET 10.9679 0 0
            CHANNELS 3 Zrotation Xrotation Yrotation
            JOINT RightShoulder
            {
              OFFSET 2.46616 -1.6653 3.69651
              CHANNELS 3 Zrotation Xrotation Yrotation
              JOINT RightArm
              {
                OFFSET 13.0012 0 0
                CHANNELS 3 Zrotation Xrotation Yrotation
                JOINT RightForeArm
                {
                  OFFSET 28.7848 1.62311e-005 0
                  CHANNELS 3 Zrotation Xrotation Yrotation
                  JOINT RightHand
                  {
                    OFFSET 26.5688 1.62095e-005 0
                    CHANNELS 3 Zrotation Xrotation Yrotation
                    End Site
                    {
                      OFFSET 0 0 0
                    }
                  }
                }
              }
            }
            JOINT LeftShoulder
            {
              OFFSET 2.38034 -1.29275 -3.7523
              CHANNELS 3 Zrotation Xrotation Yrotation
              JOINT LeftArm
              {
                OFFSET 16.3182 6.07031e-005 0
                CHANNELS 3 Zrotation Xrotation Yrotation
                JOINT LeftForeArm
                {
                  OFFSET 27.0901 0 0
                  CHANNELS 3 Zrotation Xrotation Yrotation
                  JOINT LeftHand
                  {
                    OFFSET 24.5451 1.51738e-005 0
                    CHANNELS 3 Zrotation Xrotation Yrotation
                    End Site
                    {
                      OFFSET 0 0 0
                    }
                  }
                }
              }
            }
            JOINT Neck
            {
              OFFSET 5.0226 -0.0266342 0
              CHANNELS 3 Zrotation Xrotation Yrotation
              JOINT Head
              {
                OFFSET 6.69364 2.86102e-005 0
                CHANNELS 3 Zrotation Xrotation Yrotation
                End Site
                {
                  OFFSET 0 0 0
                }
              }
            }
          }
        }
      }
    }
  }
}
MOTION
Frames:	17
Frame Time:	0.0416667
-328.438 89.3024 -319.266 95.2325 -73.0129 90.4557 166.549 -5.17347 48.8807 90.1221 -15.174 90.3027 -16.9035 -31.523 -56.377 -15.5144 -24.6597 -20.3049 164.127 16.3916 71.0151 129.094 81.5724 -177.51 18.9589 15.2579 23.5552 -94.98 48.7282 -32.9213 0.553647 8.96947 -89.2815 8.92493 1.42457 1.32515 -2.74584 1.4815 1.26116 -25.2789 0.960495 1.69196 -5.26623 0.960513 1.69196 85.1624 -49.2075 -107.973 -4.9688 3.10208 -61.7015 -6.17823 -4.22136 -61.78 22.1568 -1.12519 -9.92794 -83.6448 -51.915 88.9139 -38.3757 10.9191 27.6836 65.5116 -4.32642 -88.8676 -20.3779 -4.11572 20.6431 -2.15148 13.6923 17.0704 13.3167 10.7927 -4.54334 
-324.685 93.237 -314.788 91.7418 -73.1129 86.7395 -164.811 20.7556 86.6876 -87.4822 -54.967 -21.5153 46.7328 -27.6386 -88.7684 12.2556 -11.9157 -11.8635 145.733 12.3905 67.5979 -31.2374 77.0131 1.71823 22.4562 8.1715 14.7485 -102.133 38.444 -21.7904 1.71245 9.60963 -89.1618 7.63303 3.78323 1.4636 -4.03296 3.84395 1.29547 -26.5956 3.16844 2.53364 -6.58297 3.16844 2.53364 89.9774 -41.4386 -102.641 13.1394 9.36767 -35.3063 -31.6533 -0.450948 -89.2268 40.0315 -6.5355 -17.7164 -94.7793 -51.1188 72.4446 -35.7007 12.6155 29.4441 31.493 -0.476693 -81.6363 3.83458 1.34673 28.1238 2.26392 9.5122 8.79858 13.971 8.19302 2.12045 
-322.529 94.1534 -312.188 79.1406 -71.9151 72.3236 -156.159 17.5107 82.923 -63.4264 -20.9697 -3.85626 69.6568 -20.584 -34.5767 39.1481 8.738 0.717639 139.295 15.7011 66.1912 -23.5516 61.9783 0.310574 16.7993 4.09667 11.078 -100.396 26.3941 -15.3348 2.12574 9.51923 -88.5518 7.77473 4.87502 2.59113 -3.88917 4.98428 2.37373 -26.4544 3.87127 3.93703 -6.44173 3.87127 3.93701 92.7974 -36.6086 -99.0174 30.8454 14.5624 -7.12251 -84.3618 25.6906 -102.164 57.0067 -29.2606 -49.8273 -94.5135 -46.6002 71.524 -39.9933 14.0418 36.4929 8.42788 -5.70013 -79.0936 29.3667 5.68054 15.6655 5.01495 7.4495 1.56602 14.6966 7.86818 6.44949 
-319.793 92.6701 -308.311 67.7073 -67.0975 61.3182 -155.43 36.8 78.2328 -61.2228 11.3485 -6.00707 57.2509 -0.134385 4.03908 40.8118 18.4072 20.9441 161.206 8.04316 69.288 -18.8548 49.9507 -5.21453 3.04708 5.55355 17.437 -93.8343 -15.9092 15.3115 2.12004 8.74357 -88.3264 9.31385 4.97839 2.94726 -2.35042 5.10323 2.72498 -24.9093 3.86316 4.30733 -4.8966 3.86316 4.30733 93.6377 -34.3123 -98.0355 35.4484 13.1016 1.77638 -117.041 33.2311 -81.5096 44.693 -35.2616 -72.6568 -91.2573 -42.7942 75.4941 -46.4835 15.0217 44.9618 3.58638 -7.74908 -81.394 29.5774 3.04343 6.35058 3.91408 6.7354 1.19592 14.8585 7.08972 5.06188 
-314.93 90.8041 -301.724 67.2876 -59.7682 65.2315 -163.244 50.7656 82.0537 -54.004 15.4722 -5.93534 57.1934 -2.53185 2.9297 36.0653 14.527 23.7018 170.631 -1.62157 80.6815 -23.0835 -8.97166 -12.1872 2.71207 16.13 27.4173 63.3305 10.607 25.0188 1.89443 8.17012 -88.8146 10.4965 4.3175 1.97203 -1.16851 4.4001 1.77983 -23.7331 3.52535 3.17916 -3.7205 3.52534 3.17916 94.0918 -32.6333 -97.5853 35.3457 8.52806 2.38461 -111.39 34.6791 -83.7724 55.5393 -38.4243 -65.5939 -90.7126 -40.8467 75.8381 -50.1332 12.9859 49.9618 6.5012 -8.12935 -83.3383 27.0589 2.57196 5.74273 3.25009 5.61349 2.24117 13.4656 5.57408 3.55637 
-307.595 91.0635 -293.404 65.9952 -52.9361 68.5646 -172.722 56.0466 86.5854 -41.7617 18.7957 -4.65738 54.6243 -3.18807 3.87069 38.9805 16.6257 21.147 174.496 0.533676 86.8317 -39.2783 -19.7234 -13.9607 24.1337 16.525 18.6478 18.6236 -0.904126 -7.6455 1.58442 7.58972 -89.2845 11.6796 3.48692 1.0589 0.0130067 3.53016 0.904237 -22.5483 3.0074 2.05863 -2.53565 3.0074 2.05862 94.7549 -31.0166 -96.6838 35.3837 1.78406 4.13033 -61.1633 31.9018 -116.402 76.898 -23.1322 -22.1872 -90.8004 -40.1776 75.5073 -51.5148 10.8156 52.3041 7.17318 -8.58007 -85.8712 28.5755 3.19577 7.53351 2.54231 4.9594 4.40283 12.3786 4.30155 1.40131 
-299.915 91.6227 -284.276 66.0724 -52.6413 72.0099 -173.542 54.6204 89.6954 -36.4598 13.9527 -4.55663 56.0377 -3.19197 0.673711 39.3687 18.282 23.5068 177.132 0.738939 89.2553 -48.862 -15.4063 -10.4204 42.0733 9.56579 7.99782 -0.792566 2.51397 -13.6386 1.68766 7.38071 -89.5526 12.1098 3.56627 0.499052 0.443725 3.58479 0.341403 -22.1248 3.25127 1.54886 -2.11212 3.25125 1.54885 94.7441 -31.0728 -96.6903 35.9627 -6.91015 6.6885 -17.5903 2.52422 -128.379 8.47921 4.64161 16.2019 -89.8174 -39.6038 76.9837 -51.0205 9.21947 50.6202 5.1382 -8.7462 -87.8277 32.5864 3.0183 5.45765 1.26328 4.68934 4.05255 13.1487 4.12538 1.17754 
-292.497 90.9573 -275.099 70.4817 -51.9968 76.8532 -171.234 50.0484 88.6387 -39.0283 13.8894 -5.16914 56.5404 -3.59359 -0.802843 38.9046 18.5475 25.0941 177.981 0.155855 90.3314 -59.1629 -7.11004 -7.60782 56.1492 2.37694 1.44272 -21.7376 4.83419 -11.9771 1.57038 7.4713 -89.7189 11.9321 3.25494 0.208014 0.265235 3.26094 0.0644113 -22.2993 3.04182 1.17755 -2.28671 3.0418 1.17754 94.4092 -33.0331 -96.8826 37.0761 -18.3601 11.2737 -19.9467 6.60011 -109.316 -2.03361 -0.231019 5.10493 -90.883 -42.8316 76.1027 -45.0843 7.19894 46.7974 7.82919 -7.65825 -89.5301 31.4254 3.60801 7.76822 -0.0237626 4.78251 4.66965 12.5778 4.00309 -0.246821 
-284.831 90.634 -266.367 76.8589 -50.5396 80.5615 -169.238 42.1818 85.0165 -45.027 16.0177 -5.89918 59.6602 1.61548 7.31233 36.9666 9.02887 8.19242 177.136 2.71038 89.4911 -70.7972 0.205891 -5.68732 61.4964 -0.887686 -0.669076 -23.5629 2.84728 -5.43495 1.10791 7.74691 -89.4065 11.3709 2.4815 0.932831 -0.298004 2.52015 0.822658 -22.8448 2.0864 1.6357 -2.8322 2.08642 1.6357 92.9615 -36.4246 -98.7607 38.5734 -22.9305 15.5249 -13.0496 3.84417 -91.8047 -12.5319 -0.346031 -2.19104 -90.9742 -44.246 76.3305 -39.3603 5.71914 41.4423 8.32862 -7.00145 -91.1339 31.6251 3.46089 7.21075 -2.177 5.15711 3.53129 14.5803 4.41467 -1.47323 
-277.274 89.7617 -258.453 78.98 -50.0059 80.7521 -168.717 35.4681 82.734 -51.1085 10.7688 -5.33404 67.4025 8.25551 8.251 40.6592 8.772 -0.725197 177.262 14.3842 87.6682 -84.8214 4.92041 -4.2959 58.2711 -0.52557 -0.392304 -0.581481 0.595604 -1.41745 0.781831 7.77624 -89.098 11.3053 1.97608 1.59976 -0.364975 2.04456 1.51122 -22.8991 1.40404 2.11958 -2.88644 1.40406 2.11959 92.1802 -39.2449 -99.4487 39.9437 -24.0216 19.7506 -12.1975 1.64107 -78.5765 -15.5199 -0.410882 -2.32308 -92.2178 -46.4165 74.9687 -32.7682 4.90922 34.8949 7.75161 -6.47303 -93.2149 33.486 4.12305 8.5944 -3.77588 5.49955 1.71269 15.3847 5.0548 -1.09717 
-270.395 88.78 -250.857 79.3622 -48.7237 79.4036 -169.842 29.0373 80.9164 -53.0602 11.9414 -4.45794 67.8387 11.2297 12.6328 52.7455 19.3174 1.16899 177.866 30.445 87.314 -95.2034 8.53236 -3.48862 56.0087 -0.452073 -0.479999 28.6543 -0.286123 -2.80503 0.296938 7.84529 -88.8354 11.1663 1.13217 2.20693 -0.50588 1.22817 2.15499 -23.0269 0.416782 2.44502 -3.01429 0.416779 2.44502 91.4874 -41.0054 -100.201 40.2945 -23.5115 22.6326 -14.5026 -5.0855 -69.1518 -21.2648 -0.762545 -1.09446 -94.0253 -48.1539 72.7162 -26.2889 3.71268 25.5956 7.51028 -5.73098 -94.1575 35.882 4.44818 8.67782 -0.218076 5.49958 0.636679 11.3887 5.19574 -0.943 
-263.246 88.4148 -242.898 79.7574 -44.5815 80.3191 -172.927 21.5393 81.9969 -51.862 13.5105 -2.65953 68.4482 12.6291 13.7522 58.6084 25.9234 3.49561 174.488 44.2179 89.6668 -95.0858 8.54055 -2.29938 59.6315 -1.29503 -1.14263 33.632 -1.5758 -9.45912 -0.351273 7.75781 -88.9429 11.3565 -0.205918 2.12714 -0.316183 -0.112116 2.13413 -22.8389 -0.835565 1.96702 -2.82625 -0.835565 1.96702 90.8131 -43.2583 -100.76 40.2176 -23.5097 29.8231 -11.948 -6.63512 -65.1248 -25.7067 -0.730174 -1.93928 -94.587 -46.6974 71.4289 -23.7246 3.27238 17.5028 7.85882 -5.79419 -96.1043 36.7945 4.31378 7.96724 -0.470391 4.99487 -0.100111 9.48762 4.84156 -0.753018 
-254.863 89.0723 -234.149 82.5153 -42.9534 83.0803 -174.743 9.82782 84.7187 -46.7415 17.2894 -1.15501 66.3972 8.85031 9.98038 63.118 30.1592 3.63692 173.403 50.4143 90.3715 -83.8164 6.80531 -1.19861 61.7267 -1.00638 -0.921753 38.8253 -2.86383 -12.8332 -0.905375 7.721 -89.1811 11.4407 -1.41889 1.77506 -0.230779 -1.33941 1.83577 -22.7665 -1.88673 1.2666 -2.75389 -1.88673 1.2666 90.7761 -42.7787 -100.944 42.4144 -24.2591 39.4705 -11.9564 -6.11748 -67.6673 -23.9516 -0.291465 -3.91632 -92.175 -44.7891 74.589 -25.1999 3.70601 13.7545 7.85938 -7.20652 -103.403 35.5555 4.07474 7.71137 -3.2245 5.28352 1.04758 8.9177 5.05866 -0.343617 
-246.153 90.2571 -224.861 83.3379 -45.3667 84.7679 -174.688 0.288093 89.5395 -38.7089 20.2052 -0.280114 59.819 -0.0747119 0.678683 51.5644 28.5518 17.831 174.049 51.3254 92.2326 -62.662 6.35347 0.241479 60.6227 0.177111 -0.0180114 38.0392 -2.67518 -12.3873 -1.03847 7.54827 -89.4669 11.7886 -1.81467 1.25472 0.118288 -1.75771 1.33336 -22.4254 -2.10784 0.651179 -2.41269 -2.10787 0.651167 91.0869 -39.9478 -101.167 45.8978 -24.3895 47.5446 -12.7327 -4.68249 -70.306 -23.905 0.0407713 -5.57273 -91.0003 -44.2245 76.2833 -25.1535 3.13432 13.8699 10.0729 -9.52717 -112.458 29.6236 3.02195 6.4796 -6.18511 5.93678 2.96895 8.52984 5.65146 0.342439 
-237.788 91.5569 -214.858 85.5831 -45.3782 87.0092 -174.634 -10.0693 90.0467 -32.1442 26.1296 1.08676 47.9663 -8.56631 -4.48941 30.9828 7.83251 19.6886 174.865 44.8275 92.7404 -33.7567 4.94691 1.28932 51.3022 3.46487 2.68372 30.8267 -1.4255 -10.1039 -1.30693 7.49998 -89.6212 11.8858 -2.42048 1.01469 0.216659 -2.37346 1.12027 -22.3362 -2.61345 0.239884 -2.32358 -2.61345 0.239879 91.5877 -39.1571 -100.516 46.6722 -24.3022 52.019 -12.5797 -2.34296 -72.0974 -20.3152 0.196489 -6.55057 -90.2742 -43.511 77.2532 -25.9545 5.31791 15.8953 13.1684 -13.9194 -120.563 28.1956 2.72694 5.92211 -8.55694 5.69584 1.87046 7.88855 5.68775 1.96875 
-229.276 92.1523 -205.139 86.7873 -45.4741 85.8443 -175.943 -9.74189 89.3534 -40.3206 25.3997 1.80986 47.9117 -8.4887 -3.67367 23.0417 -1.28855 18.5908 175.87 40.2381 91.3099 -15.5091 2.33005 1.11586 43.369 5.81972 5.13035 26.5869 -0.808692 -8.5559 -1.40558 7.40463 -89.4312 12.0818 -2.52567 1.41189 0.412414 -2.46108 1.52171 -22.141 -2.83317 0.58708 -2.1283 -2.83315 0.587075 92.8457 -39.6223 -98.1924 44.7495 -23.3676 51.878 -10.7077 -0.193139 -74.1686 -20.7239 0.0461438 -5.599 -89.7484 -42.5676 77.8622 -28.4837 9.61752 18.1872 15.1199 -17.717 -123.859 26.7622 2.439 5.34508 -10.3608 4.85583 0.0753142 8.02191 5.08671 2.94886 
-221.033 92.311 -196.233 88.4551 -43.7428 86.0796 -176.372 -2.96145 89.0919 -55.615 18.3154 2.74934 51.2426 -6.54791 -3.11261 24.8787 0.944161 20.0961 175.011 38.3956 91.0983 -16.9551 5.32188 1.27563 41.7574 6.57724 6.06182 22.9665 -0.503955 -9.01253 -1.45124 7.4261 -89.4749 12.0389 -2.63734 1.33575 0.36978 -2.57599 1.45056 -22.1857 -2.91677 0.480811 -2.1731 -2.91677 0.480804 93.3944 -39.3347 -97.3007 43.0506 -20.6967 49.0583 -13.129 0.625025 -76.3887 -22.4252 0.235077 -6.58664 -90.6958 -42.9671 76.4382 -30.2608 14.0092 18.8468 14.3238 -17.9662 -120.931 24.6253 2.40904 6.01531 -11.5001 3.30644 0.2792 8.1212 3.5347 2.8552 
